<?xml version="1.0" standalone="no"?>
<!DOCTYPE svg PUBLIC "-//W3C//DTD SVG 20010904//EN"
 "http://www.w3.org/TR/2001/REC-SVG-20010904/DTD/svg10.dtd">
<svg version="1.0" xmlns="http://www.w3.org/2000/svg"
 width="144.000000pt" height="165.000000pt" viewBox="0 0 144.000000 165.000000"
 preserveAspectRatio="xMidYMid meet">
<metadata>
Created by potrace 1.14, written by Peter Selinger 2001-2017
</metadata>
<g transform="translate(0.000000,165.000000) scale(0.100000,-0.100000)"
fill="#000000" stroke="none">
<path d="M0 825 l0 -825 355 0 c341 0 355 1 355 19 0 24 -37 34 -49 13 -8 -13
-12 -14 -25 -3 -22 18 -20 34 3 26 11 -3 22 -1 25 4 8 12 -40 61 -60 61 -8 0
-12 5 -9 10 4 6 1 17 -5 25 -10 12 -9 15 3 15 8 0 27 -16 41 -35 15 -19 33
-35 40 -35 42 0 93 -84 57 -93 -9 -3 -1 -5 17 -6 29 -1 32 2 32 29 0 19 11 41
31 62 17 18 29 26 26 17 -3 -9 4 -24 15 -33 14 -12 19 -26 16 -47 -4 -22 -1
-29 12 -29 13 0 19 12 24 43 7 39 5 44 -23 68 -24 19 -28 28 -19 37 16 16 28
15 49 -4 14 -13 17 -26 12 -65 -4 -32 -1 -54 7 -64 15 -18 56 -20 63 -2 4 9 6
9 6 0 1 -10 52 -13 221 -13 l220 0 0 825 0 825 -720 0 -720 0 0 -825z m924
685 c31 0 119 -137 186 -290 3 -8 8 -38 9 -67 l2 -52 -36 10 c-20 6 -46 8 -58
6 -18 -4 -17 -5 6 -6 34 -1 35 -14 2 -29 -14 -6 -25 -16 -25 -22 0 -15 11 -12
26 8 10 13 15 14 25 5 10 -10 9 -15 -1 -27 -7 -9 -9 -23 -6 -32 4 -9 3 -22 -1
-28 -5 -7 0 -3 10 7 9 11 17 27 17 37 0 36 10 47 38 42 51 -9 55 -19 48 -111
-10 -134 -34 -188 -78 -179 -15 4 -25 -51 -36 -182 -8 -110 -22 -138 -125
-266 -93 -113 -131 -147 -159 -138 -29 8 -58 38 -58 59 0 8 -7 15 -15 15 -26
0 -16 30 13 41 15 5 32 16 37 23 6 7 30 25 54 41 l45 28 -38 15 -37 15 38 18
c27 12 32 18 18 19 -11 0 -29 7 -39 15 -11 8 -31 15 -45 15 -30 1 -54 17 -64
43 -3 9 -11 17 -17 17 -5 0 -10 3 -10 8 0 4 24 7 53 8 33 1 51 5 50 13 -2 6 4
11 12 11 8 0 15 9 15 20 0 11 -3 19 -7 19 -29 -5 -54 4 -63 22 -11 19 -9 20
37 19 69 -1 144 11 140 23 -4 12 -83 38 -112 36 -11 -1 -37 -1 -57 0 -42 1
-44 -4 22 69 35 39 35 37 12 67 -15 19 -18 38 -16 99 3 86 7 95 32 92 11 -2
17 -12 17 -31 1 -44 55 -85 108 -84 l42 2 -49 6 c-55 8 -76 29 -76 75 l0 31
21 -32 c16 -26 28 -33 52 -33 25 0 29 3 17 10 -13 9 -13 11 0 20 20 13 47 13
72 -1 11 -6 22 -8 25 -5 12 11 -21 36 -60 47 -39 10 -40 12 -22 25 10 8 30 14
44 14 39 0 16 12 -41 21 -47 8 -59 6 -102 -17 -42 -22 -51 -24 -60 -12 -6 8
-27 20 -46 28 -19 7 -39 17 -44 22 -17 14 -76 9 -82 -7 -4 -8 -12 -15 -20 -15
-18 0 -14 61 6 77 8 6 12 14 9 18 -4 3 -14 -1 -22 -10 -22 -21 -37 -19 -37 6
0 24 17 59 30 59 5 0 11 -8 14 -17 3 -11 4 -7 3 7 -1 14 3 24 9 23 13 -2 36
71 38 118 1 25 7 31 39 41 20 6 37 16 37 21 0 5 7 4 15 -3 12 -10 15 -9 15 4
0 17 38 38 54 29 4 -3 13 1 18 8 7 10 7 7 3 -8 -5 -19 -2 -23 18 -23 13 0 39
10 58 23 19 13 36 20 37 15 2 -4 9 -8 16 -8z m-282 -582 c2 -6 -4 -27 -14 -47
-10 -19 -18 -41 -18 -48 0 -7 -12 -36 -26 -63 -24 -46 -27 -89 -5 -76 8 5 3
-84 -6 -93 -2 -3 -11 3 -21 12 -13 13 -17 37 -18 97 -1 44 2 78 6 75 4 -3 10
2 14 10 3 9 0 15 -8 15 -20 0 -34 21 -41 59 -11 62 -1 71 70 71 39 0 65 -4 67
-12z"/>
</g>
</svg>
